<?xml version="1.0" encoding="UTF-8"?>
<svg width="120px" height="34px" viewBox="0 0 120 34" version="1.1" xmlns="http://www.w3.org/2000/svg" xmlns:xlink="http://www.w3.org/1999/xlink">
    <!-- Generator: Sketch 54.1 (76490) - https://sketchapp.com -->
    <title>Group 3</title>
    <desc>Created with Sketch.</desc>
    <defs>
        <radialGradient cx="113.765931%" cy="47.7136723%" fx="113.765931%" fy="47.7136723%" r="132.984132%" gradientTransform="translate(1.137659,0.477137),scale(0.999163,1.000000),translate(-1.137659,-0.477137)" id="radialGradient-1">
            <stop stop-color="#6BCACD" offset="0%"></stop>
            <stop stop-color="#37BDC6" offset="20%"></stop>
            <stop stop-color="#223A75" offset="80%"></stop>
            <stop stop-color="#211C58" offset="100%"></stop>
        </radialGradient>
        <radialGradient cx="-21.5636563%" cy="88.065415%" fx="-21.5636563%" fy="88.065415%" r="151.249837%" gradientTransform="translate(-0.215637,0.880654),scale(0.999163,1.000000),translate(0.215637,-0.880654)" id="radialGradient-2">
            <stop stop-color="#2E2D7A" offset="0%"></stop>
            <stop stop-color="#211C58" offset="100%"></stop>
        </radialGradient>
    </defs>
    <g id="Page-2" stroke="none" stroke-width="1" fill="none" fill-rule="evenodd">
        <g id="Artboard" transform="translate(-2085.000000, -1323.000000)">
            <g id="Group-3" transform="translate(2085.000000, 1323.000000)">
                <path d="M36.5892357,33.6559492 L21.715963,33.6559492 C16.5212424,33.6559492 12.3097643,29.4479947 12.3097643,24.2591578 L12.3097643,9.39679144 C12.3097643,4.20795455 16.5212424,-2.13162821e-13 21.715963,-2.13162821e-13 L36.5892357,-2.13162821e-13 C41.7839562,-2.13162821e-13 45.9938956,4.20795455 45.9938956,9.39679144 L45.9938956,24.2591578 C45.9938956,29.4479947 41.7839562,33.6559492 36.5892357,33.6559492 Z" id="Path" fill="url(#radialGradient-1)"></path>
                <polygon id="Path" fill="#2E2D7A" fill-rule="nonzero" points="58.2559596 29.9553476 58.2559596 4.92747326 62.8167273 4.92747326 62.8167273 26.8020722 68.8161987 26.8020722 68.8161987 29.9553476"></polygon>
                <path d="M76.6344377,26.6790775 C76.9514141,26.8112968 77.3330168,26.875869 77.7761684,26.875869 C78.2193199,26.875869 78.5963064,26.8112968 78.9086667,26.6790775 C79.2210269,26.5483957 79.4702997,26.3777406 79.6564848,26.1671123 C79.84267,25.956484 79.9888485,25.679746 80.0950202,25.3368984 C80.2011919,24.9955882 80.2719731,24.6527406 80.3058249,24.309893 C80.3427542,23.9685829 80.3596801,23.5611631 80.3596801,23.0860963 L80.3596801,11.7213904 C80.3596801,11.1156417 80.3304444,10.6129011 80.2704343,10.2100936 C80.2088855,9.80882353 80.090404,9.42907754 79.9134512,9.07085561 C79.738037,8.71417112 79.4733771,8.44665775 79.1210101,8.27139037 C78.7671044,8.09612299 78.3193367,8.00695187 77.7761684,8.00695187 C77.2314613,8.00695187 76.7806162,8.09612299 76.423633,8.27139037 C76.0651111,8.44665775 75.8004512,8.71417112 75.6296532,9.07085561 C75.4588552,9.42907754 75.3449899,9.80882353 75.2834411,10.2100936 C75.2218923,10.6129011 75.1926566,11.1156417 75.1926566,11.7213904 L75.1926566,23.0860963 C75.1926566,23.5611631 75.2095825,23.9685829 75.2449731,24.309893 C75.2819024,24.6527406 75.3496061,24.9955882 75.4573165,25.3368984 C75.5634882,25.679746 75.7065892,25.956484 75.8881582,26.1671123 C76.0681886,26.3777406 76.3174613,26.5483957 76.6344377,26.6790775 Z M77.7761684,30.2582219 C75.1972727,30.2582219 73.3492694,29.5586898 72.2306195,28.1596257 C71.1135084,26.7605615 70.5534141,24.7127005 70.5534141,22.0160428 L70.5534141,12.7760695 C70.5534141,11.4492647 70.6795892,10.2961898 70.9319394,9.31991979 C71.1827508,8.34518717 71.5889731,7.49959893 72.1475286,6.78469251 C72.7076229,6.0697861 73.4539024,5.53475936 74.3909832,5.17653743 C75.3296027,4.81985294 76.4559461,4.63997326 77.7761684,4.63997326 C80.3458316,4.63997326 82.1907576,5.33028075 83.3124848,6.70782086 C84.4357508,8.08843583 84.9973838,10.1101604 84.9973838,12.7760695 L84.9973838,22.0160428 C84.9973838,23.3243984 84.86967,24.4743984 84.6127037,25.4645053 C84.3557374,26.4561497 83.9479764,27.3155749 83.3894209,28.0458556 C82.8308653,28.7761364 82.0815084,29.3265374 81.1444276,29.6985963 C80.2088855,30.0706551 79.0856195,30.2582219 77.7761684,30.2582219 Z" id="Shape" fill="#2E2D7A" fill-rule="nonzero"></path>
                <path d="M94.6066936,30.2874332 C92.2401414,30.2874332 90.5352391,29.5494652 89.4935253,28.0689171 C88.4502727,26.5899064 87.9286465,24.4359626 87.9286465,21.608623 L87.9286465,13.4571524 C87.9286465,12.0165775 88.0409731,10.7774064 88.2687037,9.73502674 C88.4948956,8.69418449 88.8749596,7.77941176 89.4088956,6.99685829 C89.9443704,6.21122995 90.6768013,5.62239305 91.6154209,5.22881016 C92.5525017,4.83676471 93.7003872,4.63997326 95.0590774,4.63997326 C97.5379562,4.63997326 99.3151785,5.24725936 100.393822,6.46029412 C101.470926,7.67179144 102.011017,9.5105615 102.011017,11.9766043 L102.011017,13.2004011 L97.6441279,13.2004011 L97.6441279,11.9012701 C97.6441279,11.3493316 97.6318182,10.8957888 97.6041212,10.5421791 C97.5810404,10.1916444 97.5210303,9.83495989 97.4240909,9.4782754 C97.3286902,9.12159091 97.1902054,8.84792781 97.0101751,8.65574866 C96.8270673,8.46510695 96.5793333,8.30828877 96.2685118,8.18836898 C95.9561515,8.06691176 95.5730101,8.00695187 95.1190875,8.00695187 C94.7759529,8.00695187 94.4728249,8.05 94.2050875,8.13609626 C93.9388889,8.22219251 93.7157744,8.32673797 93.5342054,8.45280749 C93.3526364,8.57887701 93.1987643,8.75721925 93.0725892,8.98937166 C92.9464141,9.21998663 92.8510135,9.44291444 92.7863872,9.65969251 C92.7217609,9.87647059 92.6694444,10.154746 92.6340539,10.4975936 C92.5986633,10.8404412 92.5771212,11.1417781 92.5678889,11.4031417 C92.5555791,11.6660428 92.5525017,12.0027406 92.5525017,12.4147727 L92.5525017,22.5126337 C92.5525017,24.0239305 92.7386869,25.1293449 93.1110572,25.8273396 C93.4849663,26.5268717 94.1943165,26.875869 95.2406465,26.875869 C95.7853535,26.875869 96.2408148,26.7743984 96.608569,26.5668449 C96.9763232,26.3608289 97.2625253,26.0487299 97.4687138,25.6320856 C97.6764411,25.2139037 97.8210808,24.735762 97.9087879,24.196123 C97.9918788,23.6595588 98.0365017,23.0076872 98.0365017,22.2420455 L98.0365017,20.1895722 L95.3329697,20.1895722 L95.3329697,17.2453877 L102.146424,17.2453877 L102.146424,29.9553476 L99.1859259,29.9553476 L98.8520236,27.4201203 C98.0980505,29.3326872 96.6824276,30.2874332 94.6066936,30.2874332 Z" id="Path" fill="#2E2D7A" fill-rule="nonzero"></path>
                <path d="M111.263343,26.6790775 C111.58032,26.8112968 111.958845,26.875869 112.403535,26.875869 C112.848226,26.875869 113.225212,26.8112968 113.537572,26.6790775 C113.848394,26.5483957 114.097667,26.3777406 114.283852,26.1671123 C114.470037,25.956484 114.617754,25.679746 114.720848,25.3368984 C114.82702,24.9955882 114.900879,24.6527406 114.933192,24.309893 C114.968582,23.9685829 114.987047,23.5611631 114.987047,23.0860963 L114.987047,11.7213904 C114.987047,11.1156417 114.957811,10.6129011 114.897801,10.2100936 C114.837791,9.80882353 114.714694,9.42907754 114.542357,9.07085561 C114.365404,8.71417112 114.100744,8.44665775 113.749916,8.27139037 C113.394471,8.09612299 112.946704,8.00695187 112.403535,8.00695187 C111.860367,8.00695187 111.407983,8.09612299 111.052539,8.27139037 C110.694017,8.44665775 110.429357,8.71417112 110.258559,9.07085561 C110.087761,9.42907754 109.970818,9.80882353 109.910808,10.2100936 C109.850798,10.6129011 109.821562,11.1156417 109.821562,11.7213904 L109.821562,23.0860963 C109.821562,23.5611631 109.838488,23.9685829 109.87234,24.309893 C109.907731,24.6527406 109.978512,24.9955882 110.086222,25.3368984 C110.190855,25.679746 110.335495,25.956484 110.515525,26.1671123 C110.695556,26.3777406 110.944828,26.5483957 111.263343,26.6790775 Z M112.403535,30.2582219 C109.826178,30.2582219 107.978175,29.5586898 106.859525,28.1596257 C105.740875,26.7605615 105.18232,24.7127005 105.18232,22.0160428 L105.18232,12.7760695 C105.18232,11.4492647 105.306956,10.2961898 105.559306,9.31991979 C105.811657,8.34518717 106.217879,7.49959893 106.776434,6.78469251 C107.336529,6.0697861 108.082808,5.53475936 109.01835,5.17653743 C109.95697,4.81985294 111.083313,4.63997326 112.403535,4.63997326 C114.970121,4.63997326 116.818125,5.33028075 117.941391,6.70782086 C119.064657,8.08843583 119.62629,10.1101604 119.62629,12.7760695 L119.62629,22.0160428 C119.62629,23.3243984 119.498576,24.4743984 119.240071,25.4645053 C118.984643,26.4561497 118.575343,27.3155749 118.016788,28.0458556 C117.458232,28.7761364 116.708875,29.3265374 115.773333,29.6985963 C114.837791,30.0706551 113.712987,30.2582219 112.403535,30.2582219 Z" id="Shape" fill="#2E2D7A" fill-rule="nonzero"></path>
                <path d="M24.2794714,33.6559492 L9.40619865,33.6559492 C4.21147811,33.6559492 2.13162821e-13,29.4479947 2.13162821e-13,24.2591578 L2.13162821e-13,9.39679144 C2.13162821e-13,4.20795455 4.21147811,-2.13162821e-13 9.40619865,-2.13162821e-13 L24.2794714,-2.13162821e-13 C29.4741919,-2.13162821e-13 33.6841313,4.20795455 33.6841313,9.39679144 L33.6841313,24.2591578 C33.6841313,29.4479947 29.4741919,33.6559492 24.2794714,33.6559492 Z" id="Path" fill="url(#radialGradient-2)"></path>
            </g>
        </g>
    </g>
</svg>